bw_sq_120_01
version=1
nRows=11
nColumns=46
inDegrees=yes
endheader
time	ground_force3_vx	ground_force3_vy	ground_force3_vz	ground_force3_px	ground_force3_py	ground_force3_pz	ground_torque3_x	ground_torque3_y	ground_torque3_z	ground_force5_vx	ground_force5_vy	ground_force5_vz	ground_force5_px	ground_force5_py	ground_force5_pz	ground_torque5_x	ground_torque5_y	ground_torque5_z	ground_force4_vx	ground_force4_vy	ground_force4_vz	ground_force4_px	ground_force4_py	ground_force4_pz	ground_torque4_x	ground_torque4_y	ground_torque4_z	ground_force1_vx	ground_force1_vy	ground_force1_vz	ground_force1_px	ground_force1_py	ground_force1_pz	ground_torque1_x	ground_torque1_y	ground_torque1_z	ground_force2_vx	ground_force2_vy	ground_force2_vz	ground_force2_px	ground_force2_py	ground_force2_pz	ground_torque2_x	ground_torque2_y	ground_torque2_z
0.000000	-0.000000	-0.000000	0.000000	0.200000	0.000000	-0.300000	0.000000	0.000000	-0.000000	5.727248	361.377136	54.746365	0.219171	0.000000	-1.438818	0.000026	-1.050519	0.000001	-3.869721	313.067444	-51.650700	0.232496	0.000000	-0.956361	0.000007	-0.563790	0.000004	-0.000000	-0.000000	0.000000	0.200000	0.000000	0.904000	0.000000	0.000000	-0.000000	-0.000000	-0.000000	0.000000	0.400000	0.000000	0.302000	0.000000	0.000000	-0.000000	
0.001000	-0.000000	-0.000000	0.000000	0.200000	0.000000	-0.300000	0.000000	0.000000	-0.000000	5.566035	359.145935	55.550392	0.219332	0.000000	-1.437443	0.000031	-0.987486	0.000000	-4.837521	312.103760	-51.810211	0.233336	0.000000	-0.955936	0.000017	-0.278121	0.000002	-0.000000	-0.000000	0.000000	0.200000	0.000000	0.904000	0.000000	0.000000	-0.000000	-0.000000	-0.000000	0.000000	0.400000	0.000000	0.302000	0.000000	0.000000	-0.000000	
0.002000	-0.000000	-0.000000	0.000000	0.200000	0.000000	-0.300000	0.000000	0.000000	-0.000000	6.369552	358.188904	54.586170	0.218766	0.000000	-1.437892	0.000043	-0.726785	0.000004	-4.027675	313.067444	-51.811234	0.232685	0.000000	-0.957157	0.000005	-0.356099	0.000002	-0.000000	-0.000000	0.000000	0.200000	0.000000	0.904000	0.000000	0.000000	-0.000000	-0.000000	-0.000000	0.000000	0.400000	0.000000	0.302000	0.000000	0.000000	-0.000000	
0.003000	-0.000000	-0.000000	0.000000	0.200000	0.000000	-0.300000	0.000000	0.000000	-0.000000	6.047127	360.420135	55.710587	0.218745	0.000000	-1.439018	0.000048	-0.768072	0.000004	-4.029220	314.345001	-51.972786	0.233054	0.000000	-0.956940	0.000026	-0.416527	0.000004	-0.000000	-0.000000	0.000000	0.200000	0.000000	0.904000	0.000000	0.000000	-0.000000	-0.000000	-0.000000	0.000000	0.400000	0.000000	0.302000	0.000000	0.000000	-0.000000	
0.004000	-0.000000	-0.000000	0.000000	0.200000	0.000000	-0.300000	0.000000	0.000000	-0.000000	6.371080	359.784668	55.067436	0.219222	0.000000	-1.438311	0.000038	-1.052985	0.000006	-4.352848	312.743530	-51.971767	0.233330	0.000000	-0.956239	0.000002	-0.349133	0.000003	-0.000000	-0.000000	0.000000	0.200000	0.000000	0.904000	0.000000	0.000000	-0.000000	-0.000000	-0.000000	0.000000	0.400000	0.000000	0.302000	0.000000	0.000000	-0.000000	
0.005000	-0.000000	-0.000000	0.000000	0.200000	0.000000	-0.300000	0.000000	0.000000	-0.000000	5.887442	359.465118	55.228981	0.219492	0.000000	-1.438410	-0.000010	-0.910223	0.000001	-4.355937	312.423615	-52.292835	0.232960	0.000000	-0.956946	0.000022	-0.445483	0.000002	-0.000000	-0.000000	0.000000	0.200000	0.000000	0.904000	0.000000	0.000000	-0.000000	-0.000000	-0.000000	0.000000	0.400000	0.000000	0.302000	0.000000	0.000000	-0.000000	
0.006000	-0.000000	-0.000000	0.000000	0.200000	0.000000	-0.300000	0.000000	0.000000	-0.000000	6.530765	359.464478	56.031998	0.219165	0.000000	-1.438639	0.000009	-0.860387	0.000002	-3.866633	312.419250	-52.291817	0.233520	0.000000	-0.957317	0.000013	-0.240755	0.000000	-0.000000	-0.000000	0.000000	0.200000	0.000000	0.904000	0.000000	0.000000	-0.000000	-0.000000	-0.000000	0.000000	0.400000	0.000000	0.302000	0.000000	0.000000	-0.000000	
0.007000	-0.000000	-0.000000	0.000000	0.200000	0.000000	-0.300000	0.000000	0.000000	-0.000000	5.726738	358.825043	55.871124	0.219077	0.000000	-1.438195	0.000008	-1.018037	0.000006	-4.027675	312.747253	-52.135361	0.233148	0.000000	-0.955877	0.000019	-0.403940	-0.000000	-0.000000	-0.000000	0.000000	0.200000	0.000000	0.904000	0.000000	0.000000	-0.000000	-0.000000	-0.000000	0.000000	0.400000	0.000000	0.302000	0.000000	0.000000	-0.000000	
0.008000	-0.000000	-0.000000	0.000000	0.200000	0.000000	-0.300000	0.000000	0.000000	-0.000000	5.566035	356.593475	55.228981	0.219063	0.000000	-1.438034	0.000033	-0.969766	0.000004	-3.383504	312.422974	-51.972786	0.233366	0.000000	-0.956882	0.000010	-0.500088	0.000003	-0.000000	-0.000000	0.000000	0.200000	0.000000	0.904000	0.000000	0.000000	-0.000000	-0.000000	-0.000000	0.000000	0.400000	0.000000	0.302000	0.000000	0.000000	-0.000000	
0.009000	-0.000000	-0.000000	0.000000	0.200000	0.000000	-0.300000	0.000000	0.000000	-0.000000	5.887951	356.911011	55.229660	0.218162	0.000000	-1.438936	0.000031	-0.827044	0.000004	-4.513891	314.346680	-52.132301	0.232976	0.000000	-0.956965	0.000030	-0.298776	0.000005	-0.000000	-0.000000	0.000000	0.200000	0.000000	0.904000	0.000000	0.000000	-0.000000	-0.000000	-0.000000	0.000000	0.400000	0.000000	0.302000	0.000000	0.000000	-0.000000	
0.010000	-0.000000	-0.000000	0.000000	0.200000	0.000000	-0.300000	0.000000	0.000000	-0.000000	6.369552	360.739349	55.550056	0.218645	0.000000	-1.438237	0.000031	-0.778766	0.000004	-4.191806	313.068115	-52.776478	0.232703	0.000000	-0.956130	0.000012	-0.377781	0.000003	-0.000000	-0.000000	0.000000	0.200000	0.000000	0.904000	0.000000	0.000000	-0.000000	-0.000000	-0.000000	0.000000	0.400000	0.000000	0.302000	0.000000	0.000000	-0.000000	
